<svg width="89" height="42" viewBox="0 0 89 42" fill="none" xmlns="http://www.w3.org/2000/svg">
<line x1="0.421853" y1="0.960715" x2="13.4669" y2="14.0058" stroke="black" stroke-width="1.19318"/>
<rect x="1.5" y="2.5" width="25.4196" height="25.4196" stroke="black" stroke-width="3"/>
<path d="M0 1L12.5792 13.5792V29.4196H0V1Z" fill="black"/>
<path d="M28.4207 1L40.9998 13.5792V41.9988L28.4207 29.4196V1Z" fill="black"/>
<rect x="14.0793" y="15.0786" width="25.4196" height="25.4196" stroke="black" stroke-width="3"/>
<path d="M52.152 25.2928C50.6773 25.2928 49.548 24.8961 48.764 24.1028C47.98 23.3001 47.588 22.0448 47.588 20.3368C47.588 18.6941 47.9613 17.4574 48.708 16.6268C49.464 15.7961 50.612 15.3808 52.152 15.3808C53.6453 15.3808 54.7793 15.7821 55.554 16.5848C56.3287 17.3781 56.716 18.6241 56.716 20.3228C56.716 21.9748 56.3427 23.2161 55.596 24.0468C54.8493 24.8774 53.7013 25.2928 52.152 25.2928ZM52.152 23.7248C52.628 23.7154 53.0293 23.6081 53.356 23.4028C53.692 23.1974 53.944 22.8521 54.112 22.3668C54.2893 21.8721 54.378 21.1908 54.378 20.3228C54.378 19.5201 54.2893 18.8854 54.112 18.4188C53.944 17.9521 53.692 17.6208 53.356 17.4248C53.0293 17.2288 52.628 17.1308 52.152 17.1308C51.676 17.1308 51.2747 17.2334 50.948 17.4388C50.6213 17.6348 50.3693 17.9661 50.192 18.4328C50.024 18.8994 49.94 19.5388 49.94 20.3508C49.94 21.2188 50.024 21.9001 50.192 22.3948C50.3693 22.8801 50.6213 23.2254 50.948 23.4308C51.2747 23.6268 51.676 23.7248 52.152 23.7248ZM55.792 25.0968C55.96 25.0968 56.1047 25.0781 56.226 25.0408C56.3473 25.0128 56.506 24.9381 56.702 24.8168V26.2168C56.534 26.3101 56.338 26.3754 56.114 26.4128C55.8993 26.4501 55.652 26.4688 55.372 26.4688C55.1293 26.4688 54.8773 26.4408 54.616 26.3848C54.364 26.3288 54.126 26.2214 53.902 26.0628C53.6873 25.9134 53.496 25.7081 53.328 25.4468C53.16 25.1854 53.0387 24.8494 52.964 24.4388C52.8893 24.0748 52.782 23.7574 52.642 23.4868C52.5113 23.2068 52.3573 22.9921 52.18 22.8428C52.0027 22.6934 51.7973 22.6188 51.564 22.6188C51.2747 22.6188 51.004 22.6841 50.752 22.8148C50.5093 22.9454 50.29 23.1461 50.094 23.4168V21.9608C50.2527 21.7274 50.5 21.5174 50.836 21.3308C51.172 21.1348 51.5593 21.0368 51.998 21.0368C52.362 21.0368 52.712 21.1161 53.048 21.2748C53.384 21.4334 53.6827 21.6994 53.944 22.0728C54.2147 22.4461 54.42 22.9548 54.56 23.5988C54.672 24.0468 54.8307 24.4108 55.036 24.6908C55.2413 24.9614 55.4933 25.0968 55.792 25.0968ZM61.5783 25.2088C60.9249 25.2088 60.3463 25.1061 59.8423 24.9008C59.3383 24.6954 58.9463 24.3828 58.6663 23.9628C58.3863 23.5334 58.2463 22.9781 58.2463 22.2968V17.9148H60.3323V22.1288C60.3323 22.5768 60.4303 22.9128 60.6263 23.1368C60.8316 23.3514 61.1536 23.4588 61.5923 23.4588C62.0403 23.4588 62.3623 23.3514 62.5583 23.1368C62.7543 22.9128 62.8523 22.5768 62.8523 22.1288V17.9148H64.8123V22.2968C64.8123 23.3048 64.5229 24.0421 63.9443 24.5088C63.3656 24.9754 62.5769 25.2088 61.5783 25.2088ZM69.9025 25.2088C69.5105 25.2088 69.1185 25.1808 68.7265 25.1248C68.3438 25.0781 67.9938 24.9894 67.6765 24.8588C67.3685 24.7188 67.1211 24.5321 66.9345 24.2988C66.7478 24.0561 66.6545 23.7434 66.6545 23.3608V15.2968H68.6985V19.1608L68.3065 18.5028C68.4745 18.3068 68.6891 18.1528 68.9505 18.0408C69.2118 17.9194 69.4778 17.8354 69.7485 17.7888C70.0191 17.7421 70.2431 17.7188 70.4205 17.7188C71.4658 17.7188 72.2591 18.0361 72.8005 18.6708C73.3511 19.2961 73.6265 20.2154 73.6265 21.4288C73.6265 22.1381 73.5331 22.7354 73.3465 23.2208C73.1598 23.7061 72.8985 24.0934 72.5625 24.3828C72.2265 24.6721 71.8345 24.8821 71.3865 25.0128C70.9385 25.1434 70.4438 25.2088 69.9025 25.2088ZM69.8745 23.4728C70.2851 23.4728 70.6118 23.3934 70.8545 23.2348C71.0971 23.0668 71.2698 22.8381 71.3725 22.5488C71.4845 22.2594 71.5405 21.9281 71.5405 21.5548C71.5405 21.0228 71.4705 20.5981 71.3305 20.2808C71.1905 19.9634 70.9991 19.7348 70.7565 19.5948C70.5138 19.4548 70.2338 19.3848 69.9165 19.3848C69.7298 19.3848 69.5245 19.4081 69.3005 19.4548C69.0765 19.5014 68.8758 19.5761 68.6985 19.6788V22.8148C68.6985 22.9828 68.7498 23.1134 68.8525 23.2068C68.9551 23.3001 69.0951 23.3701 69.2725 23.4168C69.4591 23.4541 69.6598 23.4728 69.8745 23.4728ZM78.2687 25.2088C77.5593 25.2088 76.9293 25.0641 76.3787 24.7748C75.8373 24.4761 75.4127 24.0561 75.1047 23.5148C74.806 22.9641 74.6567 22.3108 74.6567 21.5548C74.6567 20.3228 74.96 19.3708 75.5667 18.6988C76.1827 18.0174 77.06 17.6768 78.1987 17.6768C78.9827 17.6768 79.6127 17.8448 80.0887 18.1808C80.574 18.5168 80.9287 19.0068 81.1527 19.6508C81.3767 20.2948 81.484 21.0788 81.4747 22.0028H76.0847L75.8607 20.6728H79.7527L79.4447 21.3308C79.4353 20.5748 79.328 20.0428 79.1227 19.7348C78.9173 19.4268 78.5813 19.2728 78.1147 19.2728C77.8533 19.2728 77.6153 19.3381 77.4007 19.4688C77.1953 19.5994 77.032 19.8188 76.9107 20.1268C76.7987 20.4254 76.7427 20.8408 76.7427 21.3728C76.7427 22.0448 76.9013 22.5628 77.2187 22.9268C77.5453 23.2908 78.0633 23.4728 78.7727 23.4728C79.034 23.4728 79.2907 23.4448 79.5427 23.3888C79.804 23.3234 80.0467 23.2488 80.2707 23.1648C80.4947 23.0808 80.686 23.0061 80.8447 22.9408V24.7328C80.5087 24.8728 80.1307 24.9848 79.7107 25.0688C79.3 25.1621 78.8193 25.2088 78.2687 25.2088ZM52.292 40.2928C50.8547 40.2928 49.7767 39.9894 49.058 39.3828C48.3487 38.7668 47.994 37.8101 47.994 36.5128V30.6608H50.36V36.4148C50.36 37.1334 50.5047 37.6654 50.794 38.0108C51.0833 38.3561 51.5453 38.5288 52.18 38.5288C52.7587 38.5288 53.2067 38.3561 53.524 38.0108C53.8507 37.6654 54.014 37.1334 54.014 36.4148V30.6608H56.17V36.5128C56.17 37.3808 56.002 38.0948 55.666 38.6548C55.3393 39.2054 54.8867 39.6161 54.308 39.8868C53.7293 40.1574 53.0573 40.2928 52.292 40.2928ZM58.0822 39.9988V33.6568C58.2129 33.5448 58.4462 33.4188 58.7822 33.2788C59.1182 33.1294 59.5009 32.9988 59.9302 32.8868C60.3689 32.7654 60.8075 32.7048 61.2462 32.7048C61.6849 32.7048 62.0302 32.7374 62.2822 32.8028C62.5342 32.8681 62.7255 32.9521 62.8562 33.0548V34.5808C62.6975 34.5434 62.4969 34.5154 62.2542 34.4968C62.0115 34.4781 61.7595 34.4688 61.4982 34.4688C61.2369 34.4594 60.9895 34.4594 60.7562 34.4688C60.5229 34.4781 60.3269 34.4968 60.1682 34.5248V39.9988H58.0822ZM67.3185 40.2088C66.9265 40.2088 66.5345 40.1808 66.1425 40.1248C65.7598 40.0781 65.4098 39.9894 65.0925 39.8588C64.7845 39.7188 64.5372 39.5321 64.3505 39.2988C64.1638 39.0561 64.0705 38.7434 64.0705 38.3608V30.2968H66.1145V34.1608L65.7225 33.5028C65.8905 33.3068 66.1052 33.1528 66.3665 33.0408C66.6278 32.9194 66.8938 32.8354 67.1645 32.7888C67.4352 32.7421 67.6592 32.7188 67.8365 32.7188C68.8818 32.7188 69.6752 33.0361 70.2165 33.6708C70.7672 34.2961 71.0425 35.2154 71.0425 36.4288C71.0425 37.1381 70.9492 37.7354 70.7625 38.2208C70.5758 38.7061 70.3145 39.0934 69.9785 39.3828C69.6425 39.6721 69.2505 39.8821 68.8025 40.0128C68.3545 40.1434 67.8598 40.2088 67.3185 40.2088ZM67.2905 38.4728C67.7012 38.4728 68.0278 38.3934 68.2705 38.2348C68.5132 38.0668 68.6858 37.8381 68.7885 37.5488C68.9005 37.2594 68.9565 36.9281 68.9565 36.5548C68.9565 36.0228 68.8865 35.5981 68.7465 35.2808C68.6065 34.9634 68.4152 34.7348 68.1725 34.5948C67.9298 34.4548 67.6498 34.3848 67.3325 34.3848C67.1458 34.3848 66.9405 34.4081 66.7165 34.4548C66.4925 34.5014 66.2918 34.5761 66.1145 34.6788V37.8148C66.1145 37.9828 66.1658 38.1134 66.2685 38.2068C66.3712 38.3001 66.5112 38.3701 66.6885 38.4168C66.8752 38.4541 67.0758 38.4728 67.2905 38.4728ZM75.2087 40.2088C74.7794 40.2088 74.3734 40.1668 73.9907 40.0828C73.6174 40.0081 73.286 39.8821 72.9967 39.7048C72.7167 39.5181 72.4974 39.2708 72.3387 38.9628C72.18 38.6454 72.1007 38.2534 72.1007 37.7868C72.1007 37.3481 72.1894 36.9654 72.3667 36.6388C72.5534 36.3121 72.8334 36.0601 73.2067 35.8828C73.58 35.7054 74.0514 35.6168 74.6207 35.6168C74.938 35.6168 75.246 35.6494 75.5447 35.7148C75.8434 35.7801 76.1094 35.8688 76.3427 35.9808C76.5854 36.0928 76.7767 36.2141 76.9167 36.3448L77.0007 37.3528C76.814 37.2408 76.59 37.1521 76.3287 37.0868C76.0674 37.0214 75.7874 36.9888 75.4887 36.9888C75.0314 36.9888 74.6954 37.0588 74.4807 37.1988C74.2754 37.3294 74.1727 37.5394 74.1727 37.8288C74.1727 38.0061 74.224 38.1648 74.3267 38.3048C74.4294 38.4448 74.5647 38.5521 74.7327 38.6268C74.91 38.7014 75.092 38.7388 75.2787 38.7388C75.7547 38.7388 76.086 38.7061 76.2727 38.6408C76.4687 38.5754 76.5667 38.4448 76.5667 38.2488V35.6448C76.5667 35.2154 76.4267 34.9074 76.1467 34.7208C75.876 34.5248 75.4887 34.4268 74.9847 34.4268C74.574 34.4268 74.1587 34.5014 73.7387 34.6508C73.328 34.7908 72.992 34.9634 72.7307 35.1688V33.3208C72.9734 33.1714 73.3467 33.0314 73.8507 32.9008C74.364 32.7701 74.938 32.7048 75.5727 32.7048C75.7967 32.7048 76.044 32.7234 76.3147 32.7608C76.5854 32.7981 76.856 32.8681 77.1267 32.9708C77.3974 33.0641 77.6447 33.2041 77.8687 33.3908C78.102 33.5774 78.2887 33.8154 78.4287 34.1048C78.5687 34.3941 78.6387 34.7534 78.6387 35.1828L78.6247 38.5288C78.6247 38.9301 78.4894 39.2568 78.2187 39.5088C77.948 39.7514 77.556 39.9288 77.0427 40.0408C76.5387 40.1528 75.9274 40.2088 75.2087 40.2088ZM80.4904 33.5168C80.6677 33.4234 80.9011 33.3301 81.1904 33.2368C81.4797 33.1341 81.7971 33.0454 82.1424 32.9708C82.4877 32.8961 82.8331 32.8354 83.1784 32.7888C83.5331 32.7421 83.8597 32.7188 84.1584 32.7188C84.7931 32.7188 85.3344 32.8028 85.7824 32.9708C86.2304 33.1294 86.5711 33.3908 86.8044 33.7548C87.0471 34.1188 87.1684 34.6134 87.1684 35.2388V39.9988H85.0824V35.6588C85.0824 35.4814 85.0544 35.3181 84.9984 35.1688C84.9517 35.0194 84.8771 34.8934 84.7744 34.7908C84.6717 34.6788 84.5317 34.5948 84.3544 34.5388C84.1771 34.4734 83.9624 34.4408 83.7104 34.4408C83.4957 34.4408 83.2811 34.4688 83.0664 34.5248C82.8517 34.5714 82.6884 34.6228 82.5764 34.6788V39.9988H80.4904V33.5168Z" fill="black"/>
</svg>
